<?xml version="1.0" encoding="UTF-8"?>
<svg width="184px" height="36px" viewBox="0 0 184 36" version="1.1" xmlns="http://www.w3.org/2000/svg" xmlns:xlink="http://www.w3.org/1999/xlink">
    <!-- Generator: Sketch 52.4 (67378) - http://www.bohemiancoding.com/sketch -->
    <title>robodashv5</title>
    <desc>Created with Sketch.</desc>
    <g id="Page-1" stroke="none" stroke-width="1" fill="none" fill-rule="evenodd">
        <g id="robodashv5" fill="#E86957" fill-rule="nonzero">
            <path d="M62.5753399,27.3377191 L64.3753399,14.3057191 C64.4113399,13.9457191 64.6633399,13.6217191 65.0593399,13.6217191 L66.1393399,13.6217191 C66.3553399,13.6217191 66.5713399,13.8377191 66.6433399,14.1257191 L66.8953399,15.3497191 C67.2553399,14.9897191 68.6953399,13.2617191 70.9273399,13.2617191 C71.7553399,13.2617191 72.5113399,13.4057191 72.9793399,13.7297191 C73.2673399,13.9097191 73.2673399,14.2337191 73.0513399,14.5577191 L72.0433399,16.3217191 C71.7913399,16.6817191 71.4673399,16.7177191 71.2153399,16.6457191 C71.0713399,16.6097191 70.5313399,16.4657191 70.0273399,16.4657191 C68.5153399,16.4657191 67.4713399,17.9417191 67.2553399,18.1937191 L65.9593399,27.3377191 C65.8873399,27.9497191 65.4553399,28.0217191 64.8793399,28.0217191 L63.0793399,28.0217191 C62.7553399,28.0217191 62.5393399,27.6977191 62.5753399,27.3377191 Z M73.8073399,21.7937191 C73.8073399,17.1857191 77.1913399,13.2617191 81.5473399,13.2617191 C84.7873399,13.2617191 87.1633397,16.2857191 87.1633397,19.7777191 C87.1633397,24.4217191 83.8153399,28.3817191 79.4233399,28.3817191 C76.2913399,28.3817191 73.8073399,25.3937191 73.8073399,21.7937191 Z M79.8553399,25.2857191 C81.9793399,25.2857191 83.9233399,22.9457191 83.9233399,20.1377191 C83.9233399,18.0857191 82.8073399,16.3937191 81.1153399,16.3937191 C78.9913399,16.3937191 77.0473399,18.6977191 77.0473399,21.5057191 C77.0473399,23.5577191 78.1633399,25.2857191 79.8553399,25.2857191 Z M89.8273397,27.3377191 L93.1753397,3.50571911 C93.2113397,3.14571911 93.5353397,2.82171911 93.8593397,2.82171911 L96.1273397,2.82171911 C96.4513397,2.82171911 96.7033397,3.14571911 96.6313397,3.50571911 L95.1553397,14.0537191 C95.5873397,13.8377191 96.7753397,13.2617191 98.2153397,13.2617191 C101.34734,13.2617191 103.72334,16.1417191 103.72334,19.7417191 C103.72334,24.4217191 100.51934,28.3817191 96.4153397,28.3817191 C93.8233397,28.3817191 92.5273397,26.3657191 92.5273397,26.3657191 L92.0953397,27.4097191 C91.9513397,27.7697191 91.7353397,28.0217191 91.4113397,28.0217191 L90.3313397,28.0217191 C90.0073397,28.0217191 89.7553397,27.6977191 89.8273397,27.3377191 Z M93.8593397,22.8377191 C93.8953397,23.2697191 94.5793397,25.2857191 96.4153397,25.2857191 C98.6113397,25.2857191 100.33934,22.8017191 100.33934,20.0657191 C100.33934,18.0497191 99.2233397,16.3937191 97.4593397,16.3937191 C95.8033397,16.3937191 94.6513397,17.2577191 94.6513397,17.2577191 L93.8593397,22.8377191 Z M106.24334,21.7937191 C106.24334,17.1857191 109.62734,13.2617191 113.98334,13.2617191 C117.22334,13.2617191 119.59934,16.2857191 119.59934,19.7777191 C119.59934,24.4217191 116.25134,28.3817191 111.85934,28.3817191 C108.72734,28.3817191 106.24334,25.3937191 106.24334,21.7937191 Z M112.29134,25.2857191 C114.41534,25.2857191 116.35934,22.9457191 116.35934,20.1377191 C116.35934,18.0857191 115.24334,16.3937191 113.55134,16.3937191 C111.42734,16.3937191 109.48334,18.6977191 109.48334,21.5057191 C109.48334,23.5577191 110.59934,25.2857191 112.29134,25.2857191 Z M127.23134,28.3817191 C124.20734,28.3817191 121.93934,25.4297191 121.93934,21.7577191 C121.93934,17.0777191 125.25134,13.2617191 129.49934,13.2617191 C130.54334,13.2617191 131.69534,13.6217191 132.19934,13.9457191 L133.67534,3.50571911 C133.74734,2.89371911 134.68334,2.82171911 135.18734,2.82171911 L137.59934,2.82171911 C137.92334,2.82171911 138.17534,3.14571911 138.13934,3.50571911 L134.79134,27.3377191 C134.75534,27.6977191 134.39534,28.0217191 134.07134,28.0217191 L132.66734,28.0217191 C132.45134,28.0217191 132.19934,27.9137191 132.09134,27.4097191 L131.87534,26.3297191 C131.33534,26.8337191 129.57134,28.3817191 127.23134,28.3817191 Z M125.97134,21.6857191 C125.97134,23.2337191 126.87134,24.4937191 128.34734,24.4937191 C129.85934,24.4937191 131.01134,22.8737191 131.26334,22.1537191 L131.65934,18.0137191 C131.65934,18.0137191 130.93934,17.1497191 129.46334,17.1497191 C127.59134,17.1497191 125.97134,19.2017191 125.97134,21.6857191 Z M148.21934,22.1537191 L148.65134,19.1657191 C148.54334,18.5537191 147.82334,17.1497191 146.31134,17.1497191 C144.65534,17.1497191 142.92734,18.8417191 142.92734,21.6857191 C142.92734,23.2337191 143.82734,24.4937191 145.30334,24.4937191 C146.81534,24.4937191 147.96734,22.8737191 148.21934,22.1537191 Z M153.54734,14.3057191 L151.74734,27.3377191 C151.71134,27.6977191 151.35134,28.0217191 151.02734,28.0217191 L149.62334,28.0217191 C149.40734,28.0217191 149.15534,27.9137191 149.04734,27.4097191 L148.83134,26.3297191 C148.29134,26.8337191 146.74334,28.3817191 144.18734,28.3817191 C141.16334,28.3817191 138.89534,25.4297191 138.89534,21.7577191 C138.89534,17.1137191 142.09934,13.2617191 146.31134,13.2617191 C148.36334,13.2617191 149.83934,14.5577191 150.34334,15.2417191 L150.99134,14.0897191 C151.13534,13.8377191 151.31534,13.6217191 151.63934,13.6217191 L153.04334,13.6217191 C153.36734,13.6217191 153.61934,13.9097191 153.54734,14.3057191 Z M155.67134,26.9777191 C155.41934,26.7617191 155.45534,26.4017191 155.63534,26.1137191 L156.82334,24.2777191 C156.96734,24.0257191 157.39934,23.9177191 157.65134,24.0977191 C158.08334,24.3857191 159.09134,24.7817191 160.24334,24.7817191 C160.89134,24.7817191 161.39534,24.4577191 161.39534,23.9537191 C161.39534,23.2337191 161.03534,22.8737191 159.45134,21.9377191 C157.65134,20.9297191 156.53534,19.8137191 156.53534,17.7617191 C156.53534,15.4577191 157.90334,13.2617191 161.97134,13.2617191 C163.95134,13.2617191 165.49934,13.9817191 166.11134,14.4497191 C166.39934,14.6657191 166.54334,15.1337191 166.29134,15.4937191 L165.06734,17.2937191 C164.88734,17.5457191 164.49134,17.6897191 164.13134,17.4377191 C163.80734,17.2577191 162.83534,16.8977191 161.71934,16.8977191 C160.96334,16.8977191 160.56734,17.1857191 160.56734,17.7257191 C160.56734,18.2657191 160.99934,18.5897191 162.00734,19.1297191 C164.16734,20.3177191 165.78734,21.3977191 165.78734,23.7017191 C165.78734,26.1857191 163.87934,28.3817191 160.09934,28.3817191 C157.75934,28.3817191 156.28334,27.4817191 155.67134,26.9777191 Z M168.45134,27.3377191 L171.79934,3.50571911 C171.83534,3.14571911 172.19534,2.82171911 172.51934,2.82171911 L175.72334,2.82171911 C176.04734,2.82171911 176.29934,3.14571911 176.26334,3.50571911 L174.71534,14.4497191 C175.50734,13.8377191 176.87534,13.2617191 178.06334,13.2617191 C182.16734,13.2617191 183.60734,16.7897191 183.10334,20.4257191 L182.13134,27.3377191 C182.09534,27.6977191 181.73534,28.0217191 181.41134,28.0217191 L178.31534,28.0217191 C177.95534,28.0217191 177.77534,27.6977191 177.81134,27.3377191 L178.78334,20.3537191 C179.07134,18.3737191 178.35134,17.1497191 176.76734,17.1497191 C175.00334,17.1497191 174.06734,19.0937191 174.06734,19.0937191 L172.91534,27.3377191 C172.84334,27.7337191 172.62734,28.0217191 172.12334,28.0217191 L168.95534,28.0217191 C168.63134,28.0217191 168.41534,27.6977191 168.45134,27.3377191 Z M33.2833017,12.0919706 L31.9020513,10.7107202 C31.4443451,10.253014 30.7022569,10.253014 30.2445507,10.7107202 C29.7868446,11.1684263 29.7868446,11.9105145 30.2445507,12.3682206 L31.6258011,13.7494711 L30.2445507,15.1307215 C29.7868446,15.5884275 29.7868446,16.3305159 30.2445507,16.7882219 C30.7022569,17.2459281 31.4443451,17.2459281 31.9020513,16.7882219 L33.2833017,15.4069715 L34.6645521,16.7882219 C35.1222582,17.2459281 35.8643464,17.2459281 36.3220526,16.7882219 C36.7797586,16.3305159 36.7797586,15.5884275 36.3220526,15.1307215 L34.9408021,13.7494711 L36.3220526,12.3682206 C36.7797586,11.9105145 36.7797586,11.1684263 36.3220526,10.7107202 C35.8643464,10.253014 35.1222582,10.253014 34.6645521,10.7107202 L33.2833017,12.0919706 Z M4.62071143,1.38865394 C11.8025727,0.462884647 18.9844341,6.02244027e-16 26.1662953,0 C33.3061527,0 40.44601,0.457486012 47.5858674,1.37245803 C49.0466844,1.55966101 50.22475,2.65888211 50.5125375,4.10325386 C51.4808986,8.96334746 51.9650793,13.6313742 51.9650793,18.107334 C51.9650793,22.566641 51.4844948,27.0257348 50.5233257,31.4846155 C50.2285227,32.8521982 49.1323845,33.9034985 47.7536877,34.1409572 C40.5578903,35.3803191 33.3620928,36 26.1662953,36 C18.9314198,36 11.6965443,35.3735702 4.46166871,34.1207106 L4.46166717,34.1207194 C3.1385563,33.8915971 2.07098715,32.9111742 1.73029429,31.6123101 C0.576764763,27.2145717 4.13861547e-16,22.6771351 0,18 C0,13.3230106 0.576728836,8.64574483 1.73018651,3.96820279 L1.73019621,3.96820519 C2.06901327,2.59422237 3.21718243,1.56957417 4.62071143,1.38865394 Z M7.44353831,4.39736158 C6.08759181,4.58182187 4.9711838,5.55491725 4.60332129,6.87298161 L4.60333152,6.87298447 C3.61805244,10.4032743 3.12541289,14.1122795 3.12541289,18 C3.12541289,21.8852868 3.61743584,25.4801915 4.60148172,28.7847142 C4.97089096,30.0252267 6.00741699,30.9519705 7.28138159,31.1807689 C13.5687335,32.3099811 19.8560855,32.8745871 26.1434375,32.8745871 C32.3882814,32.8745871 38.6331253,32.3175897 44.8779693,31.2035949 C46.2121383,30.9655974 47.2809181,29.9640479 47.6049789,28.648132 C48.4281039,25.3055931 48.8396664,21.7871016 48.8396664,18.0926575 C48.8396664,14.3763094 48.4232092,10.6844547 47.5902948,7.01709334 C47.2734277,5.62191225 46.1235283,4.57016381 44.7056854,4.37870469 C38.5182694,3.54317683 32.3308534,3.12541289 26.1434375,3.12541289 C19.9101378,3.12541289 13.676838,3.54939579 7.44353831,4.39736158 Z M9.77870443,7.23240547 C15.0114216,6.57801902 20.4606182,6.25082579 26.1262941,6.25082579 C31.7540094,6.25082579 37.1681364,6.57364924 42.3686752,7.21929614 C43.393413,7.34651248 44.2426533,8.07437649 44.5251782,9.06757894 C44.9845832,10.6825953 45.2142857,12.2413513 45.2142857,13.743847 C45.2142857,15.227063 44.9904404,16.7102177 44.5427497,18.1933112 L44.5427608,18.1933145 C44.2549722,19.1466903 43.4425772,19.8481789 42.4574389,19.9939528 C37.2297501,20.7675101 31.7860351,21.1542887 26.1262941,21.1542887 C20.4313947,21.1542887 14.9552137,20.7626898 9.69775097,19.979492 C8.75876134,19.8396204 7.97323208,19.1937584 7.65447601,18.2995212 C7.12292057,16.8082974 6.85714286,15.2759761 6.85714286,13.7025573 C6.85714286,12.120823 7.12573724,10.5390066 7.66292599,8.95710797 C7.9796563,8.02443327 8.80132997,7.35463271 9.77870443,7.23240547 Z M14.1789884,14.4505482 C14.0522919,14.5869114 14.0281011,14.7894645 14.1191207,14.9518293 C14.2348621,15.1582941 14.4960619,15.23184 14.7025267,15.1160986 L16.4378002,14.1433276 C17.0546925,13.7975061 17.8206351,13.8660032 18.3663768,14.3157971 L19.698633,15.4138272 C20.4041031,15.9952675 21.4417111,15.9208154 22.0569405,15.2446101 L24.2715679,12.8104897 C24.3946311,12.6752296 24.4183149,12.4767848 24.3305404,12.316362 C24.216929,12.1087175 23.9564996,12.0324886 23.7488551,12.1461001 L21.9521313,13.1291671 C21.3494615,13.4589143 20.6081423,13.3970319 20.0684846,12.9719277 L18.7023027,11.8957462 C18.0010497,11.3433486 16.9932454,11.4215672 16.385623,12.0755503 L14.1789884,14.4505482 Z" id="Combined-Shape-Copy"></path>
        </g>
    </g>
</svg>